<svg width="120" height="120" viewBox="0 0 120 120" fill="none" xmlns="http://www.w3.org/2000/svg">
<mask id="mask0_228_327" style="mask-type:alpha" maskUnits="userSpaceOnUse" x="12" y="24" width="96" height="96">
<path d="M20 120C20 120 12 120 12 112C12 104 20 80 60 80C100 80 108 104 108 112C108 120 100 120 100 120H20ZM60 72C66.3652 72 72.4697 69.4714 76.9706 64.9706C81.4714 60.4697 84 54.3652 84 48C84 41.6348 81.4714 35.5303 76.9706 31.0294C72.4697 26.5286 66.3652 24 60 24C53.6348 24 47.5303 26.5286 43.0294 31.0294C38.5286 35.5303 36 41.6348 36 48C36 54.3652 38.5286 60.4697 43.0294 64.9706C47.5303 69.4714 53.6348 72 60 72Z" fill="#DADADA"/>
</mask>
<g mask="url(#mask0_228_327)">
<circle cx="60" cy="60" r="60" fill="#DADADA"/>
</g>
<circle cx="60" cy="60" r="59.5" stroke="#DADADA"/>
</svg>
