<svg width="40" height="40" viewBox="0 0 40 40" fill="none" xmlns="http://www.w3.org/2000/svg">
<circle cx="20" cy="20" r="20" fill="#5E49FF"/>
<path d="M30.5002 26C30.5002 26.3978 30.3422 26.7794 30.0609 27.0607C29.7796 27.342 29.3981 27.5 29.0002 27.5H11.0002C10.6024 27.5 10.2209 27.342 9.93958 27.0607C9.65828 26.7794 9.50024 26.3978 9.50024 26V17C9.50024 16.6022 9.65828 16.2206 9.93958 15.9393C10.2209 15.658 10.6024 15.5 11.0002 15.5H12.7582C13.9511 15.4993 15.0949 15.0251 15.9382 14.1815L17.1832 12.9395C17.4637 12.6589 17.844 12.5009 18.2407 12.5H21.7567C22.1545 12.5001 22.536 12.6582 22.8172 12.9395L24.0592 14.1815C24.4772 14.5996 24.9734 14.9312 25.5196 15.1574C26.0657 15.3837 26.6511 15.5001 27.2422 15.5H29.0002C29.3981 15.5 29.7796 15.658 30.0609 15.9393C30.3422 16.2206 30.5002 16.6022 30.5002 17V26ZM11.0002 14C10.2046 14 9.44153 14.3161 8.87892 14.8787C8.31631 15.4413 8.00024 16.2043 8.00024 17V26C8.00024 26.7956 8.31631 27.5587 8.87892 28.1213C9.44153 28.6839 10.2046 29 11.0002 29H29.0002C29.7959 29 30.559 28.6839 31.1216 28.1213C31.6842 27.5587 32.0002 26.7956 32.0002 26V17C32.0002 16.2043 31.6842 15.4413 31.1216 14.8787C30.559 14.3161 29.7959 14 29.0002 14H27.2422C26.4467 13.9998 25.6837 13.6836 25.1212 13.121L23.8792 11.879C23.3168 11.3163 22.5538 11.0002 21.7582 11H18.2422C17.4467 11.0002 16.6837 11.3163 16.1212 11.879L14.8792 13.121C14.3168 13.6836 13.5538 13.9998 12.7582 14H11.0002Z" fill="white"/>
<path d="M20 24.5C19.0054 24.5 18.0516 24.1049 17.3483 23.4017C16.6451 22.6984 16.25 21.7446 16.25 20.75C16.25 19.7554 16.6451 18.8016 17.3483 18.0983C18.0516 17.3951 19.0054 17 20 17C20.9946 17 21.9484 17.3951 22.6516 18.0983C23.3549 18.8016 23.75 19.7554 23.75 20.75C23.75 21.7446 23.3549 22.6984 22.6516 23.4017C21.9484 24.1049 20.9946 24.5 20 24.5ZM20 26C21.3924 26 22.7277 25.4469 23.7123 24.4623C24.6969 23.4777 25.25 22.1424 25.25 20.75C25.25 19.3576 24.6969 18.0223 23.7123 17.0377C22.7277 16.0531 21.3924 15.5 20 15.5C18.6076 15.5 17.2723 16.0531 16.2877 17.0377C15.3031 18.0223 14.75 19.3576 14.75 20.75C14.75 22.1424 15.3031 23.4777 16.2877 24.4623C17.2723 25.4469 18.6076 26 20 26ZM12.5 17.75C12.5 17.9489 12.421 18.1397 12.2803 18.2803C12.1397 18.421 11.9489 18.5 11.75 18.5C11.5511 18.5 11.3603 18.421 11.2197 18.2803C11.079 18.1397 11 17.9489 11 17.75C11 17.5511 11.079 17.3603 11.2197 17.2197C11.3603 17.079 11.5511 17 11.75 17C11.9489 17 12.1397 17.079 12.2803 17.2197C12.421 17.3603 12.5 17.5511 12.5 17.75Z" fill="white"/>
</svg>
