<svg width="32" height="32" viewBox="0 0 32 32" fill="none" xmlns="http://www.w3.org/2000/svg">
<path d="M28.8438 8.86251C28.4249 7.89263 27.8209 7.01373 27.0656 6.27502C26.3098 5.5341 25.4186 4.9453 24.4406 4.54065C23.4265 4.11938 22.3388 3.90374 21.2406 3.90627C19.7 3.90627 18.1969 4.32815 16.8906 5.12502C16.5781 5.31564 16.2812 5.52502 16 5.75314C15.7188 5.52502 15.4219 5.31564 15.1094 5.12502C13.8031 4.32815 12.3 3.90627 10.7594 3.90627C9.65 3.90627 8.575 4.11877 7.55937 4.54065C6.57812 4.9469 5.69375 5.53127 4.93437 6.27502C4.17811 7.0129 3.57399 7.89201 3.15625 8.86251C2.72188 9.87189 2.5 10.9438 2.5 12.0469C2.5 13.0875 2.7125 14.1719 3.13438 15.275C3.4875 16.1969 3.99375 17.1531 4.64062 18.1188C5.66563 19.6469 7.075 21.2406 8.825 22.8562C11.725 25.5344 14.5969 27.3844 14.7188 27.4594L15.4594 27.9344C15.7875 28.1437 16.2094 28.1437 16.5375 27.9344L17.2781 27.4594C17.4 27.3812 20.2687 25.5344 23.1719 22.8562C24.9219 21.2406 26.3313 19.6469 27.3563 18.1188C28.0031 17.1531 28.5125 16.1969 28.8625 15.275C29.2844 14.1719 29.4969 13.0875 29.4969 12.0469C29.5 10.9438 29.2781 9.87189 28.8438 8.86251Z" fill="#5E49FF"/>
</svg>
