<svg width="32" height="32" viewBox="0 0 32 32" fill="none" xmlns="http://www.w3.org/2000/svg">
<path d="M26.5412 6.81119L26.5406 6.81061C25.8534 6.13694 25.0431 5.60159 24.1539 5.23367L24.1529 5.23327C23.2305 4.8501 22.2412 4.65397 21.2424 4.65627L21.2406 4.65627C19.8372 4.65627 18.4693 5.0405 17.2812 5.76528L17.2812 5.7653C16.9969 5.93869 16.7275 6.1288 16.4725 6.33563L16 6.71884L15.5275 6.33563C15.2725 6.1288 15.0031 5.93869 14.7188 5.7653L14.7188 5.76528C13.5307 5.0405 12.1628 4.65627 10.7594 4.65627C9.74743 4.65627 8.77031 4.84977 7.84708 5.23327L7.84627 5.23361C6.95374 5.60312 6.1501 6.13411 5.45916 6.81083L5.45814 6.81183C4.77213 7.48118 4.22412 8.27862 3.84517 9.15898L26.5412 6.81119ZM26.5412 6.81119C27.2265 7.4815 27.7746 8.27897 28.1548 9.15898C28.549 10.075 28.7497 11.0453 28.7469 12.0448V12.0469C28.7469 12.9848 28.5554 13.9785 28.162 15.0071L28.1613 15.0088M26.5412 6.81119L28.1613 15.0088M9.33375 22.3052L9.33383 22.3053C10.7579 23.6203 12.1779 24.7346 13.2583 25.53C13.798 25.9273 14.2514 26.2439 14.5763 26.4651C14.7388 26.5757 14.8689 26.6624 14.9614 26.7231C15.0076 26.7535 15.0442 26.7773 15.0706 26.7943L15.1017 26.8142C15.1057 26.8168 15.1085 26.8185 15.1101 26.8196C15.1118 26.8206 15.1123 26.8209 15.1118 26.8206L15.1237 26.8279L15.1236 26.828L15.8628 27.3021C15.863 27.3022 15.8631 27.3023 15.8633 27.3024C15.9452 27.3544 16.0517 27.3544 16.1336 27.3024C16.1337 27.3023 16.1339 27.3022 16.1341 27.3021L16.8732 26.828L16.8734 26.828C16.9804 26.7594 19.807 24.9399 22.6631 22.3052C24.3822 20.7181 25.7492 19.1683 26.7333 17.7011L9.33375 22.3052ZM9.33375 22.3052C7.61463 20.7181 6.2477 19.1683 5.26355 17.7011L9.33375 22.3052ZM28.1613 15.0088C27.8354 15.8674 27.355 16.773 26.7334 17.701L28.1613 15.0088ZM3.25 12.0469C3.25 11.046 3.45097 10.075 3.84514 9.15904L3.83475 15.0067C3.44146 13.9782 3.25 12.9847 3.25 12.0469ZM5.26348 17.701C4.64282 16.7744 4.16476 15.8682 3.83489 15.0071L5.26348 17.701Z" stroke="#4D4C4D" stroke-width="1.5"/>
</svg>
