<svg width="205" height="40" viewBox="0 0 205 40" fill="none" xmlns="http://www.w3.org/2000/svg">
<path d="M6.49148 34.8131C6.50888 35.8313 7.38344 36.6275 8.40159 36.6275H17.8477C18.8658 36.6275 19.7448 35.8313 19.7578 34.8131C19.7752 33.7819 18.9398 32.9378 17.913 32.9378H8.33197C7.30513 32.9378 6.47408 33.7776 6.49148 34.8131Z" fill="#5E49FF"/>
<path d="M12.9092 28.8566C12.9092 29.8747 13.7794 30.7014 14.8497 30.7014H24.9181C25.9884 30.7014 26.8586 29.8747 26.8586 28.8566C26.8586 27.8384 25.9884 27.0117 24.9181 27.0117H14.8497C13.775 27.0117 12.9092 27.8384 12.9092 28.8566Z" fill="#5E49FF"/>
<path d="M7.64913 7.06652H1.8666C0.8354 7.06652 0 6.23113 0 5.19993C0 4.16873 0.8354 3.33333 1.8666 3.33333H7.64913C8.68033 3.33333 9.51572 4.16873 9.51572 5.19993C9.51137 6.23113 8.68033 7.06652 7.64913 7.06652Z" fill="#3BD42D"/>
<path d="M13.2273 12.9317H7.44472C6.41353 12.9317 5.57812 12.0963 5.57812 11.0651C5.57812 10.034 6.41353 9.19855 7.44472 9.19855H13.2273C14.2585 9.19855 15.0939 10.034 15.0939 11.0651C15.0939 12.0963 14.2585 12.9317 13.2273 12.9317Z" fill="#3BD42D"/>
<path d="M32.8285 12.9317H18.4613C17.4301 12.9317 16.5947 12.0963 16.5947 11.0651C16.5947 10.034 17.4301 9.19855 18.4613 9.19855H32.8285C33.8597 9.19855 34.6951 10.034 34.6951 11.0651C34.6907 12.0963 33.8597 12.9317 32.8285 12.9317Z" fill="#25CBD3"/>
<path d="M28.2904 18.8884H13.9232C12.892 18.8884 12.0566 18.053 12.0566 17.0218C12.0566 15.9906 12.892 15.1552 13.9232 15.1552H28.2904C29.3216 15.1552 30.157 15.9906 30.157 17.0218C30.1526 18.053 29.3172 18.8884 28.2904 18.8884Z" fill="#5E49FF"/>
<path d="M35.6605 24.8144H21.2934C20.2622 24.8144 19.4268 23.979 19.4268 22.9478C19.4268 21.9166 20.2622 21.0812 21.2934 21.0812H35.6605C36.6917 21.0812 37.5271 21.9166 37.5271 22.9478C37.5271 23.979 36.6917 24.8144 35.6605 24.8144Z" fill="#25CBD3"/>
<path d="M21.2627 7.06652H13.0219C11.9907 7.06652 11.1553 6.23113 11.1553 5.19993C11.1553 4.16873 11.9907 3.33333 13.0219 3.33333H21.2627C22.2939 3.33333 23.1293 4.16873 23.1293 5.19993C23.1293 6.23113 22.2939 7.06652 21.2627 7.06652Z" fill="#5E49FF"/>
<path d="M28.3465 7.06652H26.5844C25.5532 7.06652 24.7178 6.23113 24.7178 5.19993C24.7178 4.16873 25.5532 3.33333 26.5844 3.33333H28.3465C29.3777 3.33333 30.2131 4.16873 30.2131 5.19993C30.2131 6.23113 29.3777 7.06652 28.3465 7.06652Z" fill="#25CBD3"/>
<path d="M35.4872 18.8884H33.725C32.6938 18.8884 31.8584 18.053 31.8584 17.0218C31.8584 15.9906 32.6938 15.1552 33.725 15.1552H35.4872C36.5184 15.1552 37.3538 15.9906 37.3538 17.0218C37.3538 18.053 36.5184 18.8884 35.4872 18.8884Z" fill="#25CBD3"/>
<path d="M32.828 30.7406H30.2826C29.2514 30.7406 28.416 29.9052 28.416 28.874C28.416 27.8428 29.2514 27.0074 30.2826 27.0074H32.828C33.8592 27.0074 34.6946 27.8428 34.6946 28.874C34.6902 29.9052 33.8592 30.7406 32.828 30.7406Z" fill="#25CBD3"/>
<path d="M3.31114 36.6405H1.8666C0.835401 36.6405 0 35.8051 0 34.7739C0 33.7427 0.835401 32.9073 1.8666 32.9073H3.31114C4.34234 32.9073 5.17774 33.7427 5.17774 34.7739C5.17774 35.8051 4.34234 36.6405 3.31114 36.6405Z" fill="#3BD42D"/>
<path d="M28.3466 36.6667H23.1732C22.142 36.6667 21.3066 35.8313 21.3066 34.8001C21.3066 33.7689 22.142 32.9335 23.1732 32.9335H28.3466C29.3778 32.9335 30.2132 33.7689 30.2132 34.8001C30.2132 35.8313 29.3778 36.6667 28.3466 36.6667Z" fill="#25CBD3"/>
<path d="M70.1607 10.7562H62.9157V29H70.1607C75.7257 29 79.5582 25.4562 79.5582 19.865C79.5582 14.2737 75.7257 10.7562 70.1607 10.7562ZM70.0294 25.115H67.2994V14.6412H70.0294C73.0744 14.6412 75.1219 16.4787 75.1219 19.9175C75.1219 23.2775 73.0744 25.115 70.0294 25.115ZM85.5329 23.3825H95.5604C95.6129 23.015 95.6654 22.49 95.6654 21.8075C95.6654 18.395 92.9879 14.825 88.4729 14.825C84.4829 14.825 81.2804 18.1062 81.2804 22.0962C81.2804 26.2175 84.1679 29.3413 88.7354 29.3413C92.1742 29.3413 93.9067 27.95 95.0092 26.5062L91.7279 24.3275C91.1767 25.2462 90.4154 25.7712 88.8667 25.7712C87.2129 25.7712 85.9792 24.9312 85.5329 23.3825ZM85.4804 20.6525C85.8479 18.9725 86.9767 18.1062 88.5779 18.1062C90.1792 18.1062 91.2292 19.0775 91.5967 20.6525H85.4804ZM106.331 15.1662L103.364 24.695L100.424 15.1662H95.9093L100.818 29H105.937L110.846 15.1662H106.331ZM122.052 15.1662V16.61C121.081 15.6387 119.768 15.1137 118.062 15.1137C114.046 15.1137 111.158 17.9487 111.158 22.0962C111.158 26.2437 114.046 29.3413 118.062 29.3413C119.768 29.3413 121.081 28.7637 122.052 27.74V29H126.095V15.1662H122.052ZM118.692 25.4825C116.828 25.4825 115.516 24.065 115.516 22.0962C115.516 20.1275 116.855 18.6837 118.692 18.6837C120.608 18.6837 121.895 20.075 121.895 22.0962C121.895 24.0912 120.608 25.4825 118.692 25.4825ZM139.131 15.1662V16.4262C138.159 15.4287 136.847 14.8512 135.141 14.8512C131.151 14.8512 128.263 17.9487 128.263 21.6762C128.263 25.4037 131.124 28.4225 135.141 28.4225C136.847 28.4225 138.159 27.845 139.131 26.8475V27.2412C139.131 29.1313 137.792 30.3913 135.482 30.3913C133.933 30.3913 132.673 29.84 132.122 28.58L128.421 30.0238C129.339 32.36 131.492 34.04 135.456 34.04C140.364 34.04 143.173 31.0738 143.173 26.8212V15.1662H139.131ZM135.718 25.0887C133.933 25.0887 132.594 23.6712 132.594 21.8862C132.594 20.1012 133.933 18.6837 135.718 18.6837C137.582 18.6837 138.868 20.075 138.868 21.8862C138.868 23.6975 137.582 25.0887 135.718 25.0887ZM150.041 16.3475V15.1662H145.919V29H150.303V21.5975C150.303 19.7862 151.563 18.92 153.873 18.92V14.825C152.324 14.825 150.986 15.4287 150.041 16.3475ZM165.727 15.1662V16.61C164.755 15.6387 163.443 15.1137 161.737 15.1137C157.72 15.1137 154.833 17.9487 154.833 22.0962C154.833 26.2437 157.72 29.3413 161.737 29.3413C163.443 29.3413 164.755 28.7637 165.727 27.74V29H169.769V15.1662H165.727ZM162.367 25.4825C160.503 25.4825 159.19 24.065 159.19 22.0962C159.19 20.1275 160.529 18.6837 162.367 18.6837C164.283 18.6837 165.569 20.075 165.569 22.0962C165.569 24.0912 164.283 25.4825 162.367 25.4825ZM188.921 14.825C186.795 14.825 185.325 15.56 184.511 16.6362C183.75 15.455 182.464 14.825 180.469 14.825C178.815 14.825 177.502 15.4287 176.636 16.295V15.1662H172.515V28.9737H176.899V20.8887C176.899 19.865 177.555 18.71 179.077 18.71C180.495 18.71 181.151 19.8912 181.151 21.2037V28.9737H185.535V20.8887C185.535 19.8912 186.191 18.71 187.714 18.71C189.131 18.71 189.787 19.8912 189.787 21.2037V28.9737H194.171V20.3637C194.171 17.345 192.412 14.825 188.921 14.825Z" fill="#333333"/>
</svg>
