<svg width="380" height="238" viewBox="0 0 380 238" fill="none" xmlns="http://www.w3.org/2000/svg">
<path d="M144.554 116.706C144.619 120.48 147.861 123.432 151.635 123.432H186.655C190.43 123.432 193.688 120.48 193.737 116.706C193.801 112.883 190.704 109.753 186.897 109.753H151.377C147.571 109.753 144.49 112.867 144.554 116.706Z" fill="#5E49FF"/>
<path d="M168.347 94.6227C168.347 98.3973 171.573 101.462 175.542 101.462H212.868C216.836 101.462 220.062 98.3973 220.062 94.6227C220.062 90.8481 216.836 87.7833 212.868 87.7833H175.542C171.557 87.7833 168.347 90.8481 168.347 94.6227Z" fill="#5E49FF"/>
<path d="M148.846 13.8401H127.408C123.585 13.8401 120.488 10.7431 120.488 6.92008C120.488 3.09711 123.585 0 127.408 0H148.846C152.669 0 155.766 3.09711 155.766 6.92008C155.749 10.7431 152.669 13.8401 148.846 13.8401Z" fill="#3BD42D"/>
<path d="M169.525 35.5843H148.088C144.265 35.5843 141.168 32.4872 141.168 28.6642C141.168 24.8412 144.265 21.7442 148.088 21.7442H169.525C173.348 21.7442 176.446 24.8412 176.446 28.6642C176.446 32.4872 173.348 35.5843 169.525 35.5843Z" fill="#3BD42D"/>
<path d="M242.193 35.5843H188.929C185.107 35.5843 182.009 32.4872 182.009 28.6642C182.009 24.8412 185.107 21.7442 188.929 21.7442H242.193C246.016 21.7442 249.113 24.8412 249.113 28.6642C249.097 32.4872 246.016 35.5843 242.193 35.5843Z" fill="#25CBD3"/>
<path d="M225.37 57.6673H172.106C168.283 57.6673 165.186 54.5702 165.186 50.7472C165.186 46.9242 168.283 43.8272 172.106 43.8272H225.37C229.193 43.8272 232.29 46.9242 232.29 50.7472C232.274 54.5702 229.177 57.6673 225.37 57.6673Z" fill="#5E49FF"/>
<path d="M252.695 79.6373H199.432C195.609 79.6373 192.512 76.5401 192.512 72.7172C192.512 68.8942 195.609 65.7971 199.432 65.7971H252.695C256.518 65.7971 259.615 68.8942 259.615 72.7172C259.615 76.5401 256.518 79.6373 252.695 79.6373Z" fill="#25CBD3"/>
<path d="M199.318 13.8401H168.767C164.944 13.8401 161.847 10.7431 161.847 6.92008C161.847 3.09711 164.944 0 168.767 0H199.318C203.141 0 206.238 3.09711 206.238 6.92008C206.238 10.7431 203.141 13.8401 199.318 13.8401Z" fill="#5E49FF"/>
<path d="M225.578 13.8401H219.045C215.222 13.8401 212.125 10.7431 212.125 6.92008C212.125 3.09711 215.222 0 219.045 0H225.578C229.401 0 232.498 3.09711 232.498 6.92008C232.498 10.7431 229.401 13.8401 225.578 13.8401Z" fill="#25CBD3"/>
<path d="M252.05 57.6673H245.517C241.694 57.6673 238.597 54.5702 238.597 50.7472C238.597 46.9242 241.694 43.8272 245.517 43.8272H252.05C255.873 43.8272 258.97 46.9242 258.97 50.7472C258.97 54.5702 255.873 57.6673 252.05 57.6673Z" fill="#25CBD3"/>
<path d="M242.193 101.607H232.757C228.934 101.607 225.836 98.5102 225.836 94.6872C225.836 90.8643 228.934 87.7672 232.757 87.7672H242.193C246.016 87.7672 249.113 90.8643 249.113 94.6872C249.097 98.5102 246.016 101.607 242.193 101.607Z" fill="#25CBD3"/>
<path d="M132.763 123.48H127.408C123.585 123.48 120.488 120.383 120.488 116.56C120.488 112.737 123.585 109.64 127.408 109.64H132.763C136.586 109.64 139.683 112.737 139.683 116.56C139.683 120.383 136.586 123.48 132.763 123.48Z" fill="#3BD42D"/>
<path d="M225.579 123.577H206.399C202.576 123.577 199.479 120.48 199.479 116.657C199.479 112.834 202.576 109.737 206.399 109.737H225.579C229.402 109.737 232.499 112.834 232.499 116.657C232.499 120.48 229.402 123.577 225.579 123.577Z" fill="#25CBD3"/>
<path d="M25.5012 172.062H5.01414V223.65H25.5012C41.2377 223.65 52.075 213.63 52.075 197.819C52.075 182.008 41.2377 172.062 25.5012 172.062ZM25.1301 212.665H17.4103V183.047H25.1301C33.7406 183.047 39.5304 188.243 39.5304 197.967C39.5304 207.469 33.7406 212.665 25.1301 212.665ZM68.9701 207.765H97.3254C97.4739 206.726 97.6223 205.242 97.6223 203.312C97.6223 193.662 90.051 183.567 77.2837 183.567C66.001 183.567 56.9451 192.846 56.9451 204.128C56.9451 215.782 65.1102 224.615 78.026 224.615C87.7499 224.615 92.649 220.681 95.7666 216.599L86.4881 210.438C84.9293 213.036 82.7766 214.52 78.3972 214.52C73.7208 214.52 70.232 212.145 68.9701 207.765ZM68.8217 200.046C69.8609 195.295 73.0527 192.846 77.5806 192.846C82.1086 192.846 85.0777 195.592 86.1169 200.046H68.8217ZM127.781 184.532L119.393 211.477L111.079 184.532H98.3118L112.193 223.65H126.667L140.548 184.532H127.781ZM172.238 184.532V188.615C169.491 185.868 165.78 184.384 160.955 184.384C149.598 184.384 141.433 192.4 141.433 204.128C141.433 215.856 149.598 224.615 160.955 224.615C165.78 224.615 169.491 222.982 172.238 220.087V223.65H183.669V184.532H172.238ZM162.736 213.704C157.466 213.704 153.755 209.695 153.755 204.128C153.755 198.561 157.54 194.479 162.736 194.479C168.155 194.479 171.792 198.413 171.792 204.128C171.792 209.77 168.155 213.704 162.736 213.704ZM220.531 184.532V188.095C217.784 185.274 214.073 183.641 209.248 183.641C197.965 183.641 189.8 192.4 189.8 202.941C189.8 213.481 197.891 222.017 209.248 222.017C214.073 222.017 217.784 220.384 220.531 217.564V218.677C220.531 224.022 216.745 227.585 210.213 227.585C205.834 227.585 202.271 226.026 200.712 222.463L190.246 226.545C192.844 233.152 198.93 237.902 210.139 237.902C224.02 237.902 231.962 229.514 231.962 217.489V184.532H220.531ZM210.881 212.59C205.834 212.59 202.048 208.582 202.048 203.534C202.048 198.487 205.834 194.479 210.881 194.479C216.151 194.479 219.789 198.413 219.789 203.534C219.789 208.656 216.151 212.59 210.881 212.59ZM251.382 187.872V184.532H239.728V223.65H252.124V202.718C252.124 197.596 255.687 195.147 262.219 195.147V183.567C257.84 183.567 254.054 185.274 251.382 187.872ZM295.738 184.532V188.615C292.992 185.868 289.28 184.384 284.456 184.384C273.099 184.384 264.933 192.4 264.933 204.128C264.933 215.856 273.099 224.615 284.456 224.615C289.28 224.615 292.992 222.982 295.738 220.087V223.65H307.169V184.532H295.738ZM286.237 213.704C280.967 213.704 277.255 209.695 277.255 204.128C277.255 198.561 281.041 194.479 286.237 194.479C291.656 194.479 295.293 198.413 295.293 204.128C295.293 209.77 291.656 213.704 286.237 213.704ZM361.327 183.567C355.314 183.567 351.157 185.645 348.856 188.689C346.704 185.348 343.066 183.567 337.425 183.567C332.749 183.567 329.037 185.274 326.588 187.724V184.532H314.934V223.576H327.33V200.714C327.33 197.819 329.186 194.553 333.491 194.553C337.499 194.553 339.355 197.893 339.355 201.605V223.576H351.751V200.714C351.751 197.893 353.607 194.553 357.912 194.553C361.92 194.553 363.776 197.893 363.776 201.605V223.576H376.172V199.229C376.172 190.693 371.199 183.567 361.327 183.567Z" fill="#333333"/>
</svg>
